<mxfile host="app.diagrams.net" agent="Mozilla/5.0 (X11; Linux x86_64) AppleWebKit/537.36 (KHTML, like Gecko) Chrome/134.0.0.0 Safari/537.36" version="26.1.0">
  <diagram name="Trang-1" id="pwZQoqBfr0uB4Aa0KCQJ">
    <mxGraphModel dx="1448" dy="734" grid="1" gridSize="10" guides="1" tooltips="1" connect="1" arrows="1" fold="1" page="1" pageScale="1" pageWidth="827" pageHeight="1169" math="0" shadow="0">
      <root>
        <mxCell id="0" />
        <mxCell id="1" parent="0" />
        <mxCell id="_fjjPmCoHC-vN5WkDDjV-3" value="" style="edgeStyle=orthogonalEdgeStyle;rounded=0;orthogonalLoop=1;jettySize=auto;html=1;" edge="1" parent="1" source="_fjjPmCoHC-vN5WkDDjV-1" target="_fjjPmCoHC-vN5WkDDjV-2">
          <mxGeometry relative="1" as="geometry" />
        </mxCell>
        <mxCell id="_fjjPmCoHC-vN5WkDDjV-1" value="function withdraw(int256 amountIn)" style="ellipse;whiteSpace=wrap;html=1;" vertex="1" parent="1">
          <mxGeometry x="270" y="150" width="220" height="60" as="geometry" />
        </mxCell>
        <mxCell id="_fjjPmCoHC-vN5WkDDjV-5" value="" style="edgeStyle=orthogonalEdgeStyle;rounded=0;orthogonalLoop=1;jettySize=auto;html=1;" edge="1" parent="1" source="_fjjPmCoHC-vN5WkDDjV-2" target="_fjjPmCoHC-vN5WkDDjV-4">
          <mxGeometry relative="1" as="geometry">
            <Array as="points">
              <mxPoint x="520" y="340" />
              <mxPoint x="520" y="340" />
            </Array>
          </mxGeometry>
        </mxCell>
        <mxCell id="_fjjPmCoHC-vN5WkDDjV-6" value="T" style="edgeLabel;html=1;align=center;verticalAlign=middle;resizable=0;points=[];fontStyle=1" vertex="1" connectable="0" parent="_fjjPmCoHC-vN5WkDDjV-5">
          <mxGeometry x="0.1" y="1" relative="1" as="geometry">
            <mxPoint y="1" as="offset" />
          </mxGeometry>
        </mxCell>
        <mxCell id="_fjjPmCoHC-vN5WkDDjV-8" value="" style="edgeStyle=orthogonalEdgeStyle;rounded=0;orthogonalLoop=1;jettySize=auto;html=1;" edge="1" parent="1" source="_fjjPmCoHC-vN5WkDDjV-2" target="_fjjPmCoHC-vN5WkDDjV-7">
          <mxGeometry relative="1" as="geometry" />
        </mxCell>
        <mxCell id="_fjjPmCoHC-vN5WkDDjV-11" value="&lt;b&gt;F&lt;/b&gt;" style="edgeLabel;html=1;align=center;verticalAlign=middle;resizable=0;points=[];" vertex="1" connectable="0" parent="_fjjPmCoHC-vN5WkDDjV-8">
          <mxGeometry x="-0.05" relative="1" as="geometry">
            <mxPoint as="offset" />
          </mxGeometry>
        </mxCell>
        <mxCell id="_fjjPmCoHC-vN5WkDDjV-2" value="msg.sender != owner" style="rhombus;whiteSpace=wrap;html=1;" vertex="1" parent="1">
          <mxGeometry x="280" y="300" width="200" height="80" as="geometry" />
        </mxCell>
        <mxCell id="_fjjPmCoHC-vN5WkDDjV-4" value="return &quot;Access Denied&quot;" style="rounded=1;whiteSpace=wrap;html=1;" vertex="1" parent="1">
          <mxGeometry x="600" y="310" width="120" height="60" as="geometry" />
        </mxCell>
        <mxCell id="_fjjPmCoHC-vN5WkDDjV-10" value="" style="edgeStyle=orthogonalEdgeStyle;rounded=0;orthogonalLoop=1;jettySize=auto;html=1;" edge="1" parent="1" source="_fjjPmCoHC-vN5WkDDjV-7" target="_fjjPmCoHC-vN5WkDDjV-9">
          <mxGeometry relative="1" as="geometry" />
        </mxCell>
        <mxCell id="_fjjPmCoHC-vN5WkDDjV-15" value="&lt;b&gt;T&lt;/b&gt;" style="edgeLabel;html=1;align=center;verticalAlign=middle;resizable=0;points=[];" vertex="1" connectable="0" parent="_fjjPmCoHC-vN5WkDDjV-10">
          <mxGeometry x="0.0333" y="1" relative="1" as="geometry">
            <mxPoint as="offset" />
          </mxGeometry>
        </mxCell>
        <mxCell id="_fjjPmCoHC-vN5WkDDjV-17" value="" style="edgeStyle=orthogonalEdgeStyle;rounded=0;orthogonalLoop=1;jettySize=auto;html=1;" edge="1" parent="1" source="_fjjPmCoHC-vN5WkDDjV-7" target="_fjjPmCoHC-vN5WkDDjV-16">
          <mxGeometry relative="1" as="geometry" />
        </mxCell>
        <mxCell id="_fjjPmCoHC-vN5WkDDjV-20" value="F" style="edgeLabel;html=1;align=center;verticalAlign=middle;resizable=0;points=[];fontStyle=1" vertex="1" connectable="0" parent="_fjjPmCoHC-vN5WkDDjV-17">
          <mxGeometry x="-0.025" relative="1" as="geometry">
            <mxPoint as="offset" />
          </mxGeometry>
        </mxCell>
        <mxCell id="_fjjPmCoHC-vN5WkDDjV-7" value="amountIn &amp;lt;= 0" style="rhombus;whiteSpace=wrap;html=1;" vertex="1" parent="1">
          <mxGeometry x="280" y="430" width="200" height="80" as="geometry" />
        </mxCell>
        <mxCell id="_fjjPmCoHC-vN5WkDDjV-9" value="return &quot;Invalid amount&quot;" style="rounded=1;whiteSpace=wrap;html=1;" vertex="1" parent="1">
          <mxGeometry x="600" y="440" width="120" height="60" as="geometry" />
        </mxCell>
        <mxCell id="_fjjPmCoHC-vN5WkDDjV-19" value="" style="edgeStyle=orthogonalEdgeStyle;rounded=0;orthogonalLoop=1;jettySize=auto;html=1;" edge="1" parent="1" source="_fjjPmCoHC-vN5WkDDjV-16" target="_fjjPmCoHC-vN5WkDDjV-18">
          <mxGeometry relative="1" as="geometry" />
        </mxCell>
        <mxCell id="_fjjPmCoHC-vN5WkDDjV-21" value="&lt;b&gt;T&lt;/b&gt;" style="edgeLabel;html=1;align=center;verticalAlign=middle;resizable=0;points=[];" vertex="1" connectable="0" parent="_fjjPmCoHC-vN5WkDDjV-19">
          <mxGeometry x="0.05" y="1" relative="1" as="geometry">
            <mxPoint as="offset" />
          </mxGeometry>
        </mxCell>
        <mxCell id="_fjjPmCoHC-vN5WkDDjV-25" value="" style="edgeStyle=orthogonalEdgeStyle;rounded=0;orthogonalLoop=1;jettySize=auto;html=1;" edge="1" parent="1" source="_fjjPmCoHC-vN5WkDDjV-16" target="_fjjPmCoHC-vN5WkDDjV-24">
          <mxGeometry relative="1" as="geometry" />
        </mxCell>
        <mxCell id="_fjjPmCoHC-vN5WkDDjV-36" value="F" style="edgeLabel;html=1;align=center;verticalAlign=middle;resizable=0;points=[];" vertex="1" connectable="0" parent="_fjjPmCoHC-vN5WkDDjV-25">
          <mxGeometry x="0.025" relative="1" as="geometry">
            <mxPoint as="offset" />
          </mxGeometry>
        </mxCell>
        <mxCell id="_fjjPmCoHC-vN5WkDDjV-16" value="amountIn &amp;gt; balance" style="rhombus;whiteSpace=wrap;html=1;" vertex="1" parent="1">
          <mxGeometry x="280" y="560" width="200" height="80" as="geometry" />
        </mxCell>
        <mxCell id="_fjjPmCoHC-vN5WkDDjV-18" value="return &quot;Inufiicient funds&quot;" style="rounded=1;whiteSpace=wrap;html=1;" vertex="1" parent="1">
          <mxGeometry x="600" y="570" width="120" height="60" as="geometry" />
        </mxCell>
        <mxCell id="_fjjPmCoHC-vN5WkDDjV-27" value="" style="edgeStyle=orthogonalEdgeStyle;rounded=0;orthogonalLoop=1;jettySize=auto;html=1;" edge="1" parent="1" source="_fjjPmCoHC-vN5WkDDjV-24" target="_fjjPmCoHC-vN5WkDDjV-26">
          <mxGeometry relative="1" as="geometry">
            <Array as="points">
              <mxPoint x="540" y="730" />
              <mxPoint x="540" y="730" />
            </Array>
          </mxGeometry>
        </mxCell>
        <mxCell id="_fjjPmCoHC-vN5WkDDjV-41" value="&lt;b&gt;T&lt;/b&gt;" style="edgeLabel;html=1;align=center;verticalAlign=middle;resizable=0;points=[];" vertex="1" connectable="0" parent="_fjjPmCoHC-vN5WkDDjV-27">
          <mxGeometry x="-0.2833" relative="1" as="geometry">
            <mxPoint x="17" as="offset" />
          </mxGeometry>
        </mxCell>
        <mxCell id="_fjjPmCoHC-vN5WkDDjV-31" value="" style="edgeStyle=orthogonalEdgeStyle;rounded=0;orthogonalLoop=1;jettySize=auto;html=1;" edge="1" parent="1" source="_fjjPmCoHC-vN5WkDDjV-24" target="_fjjPmCoHC-vN5WkDDjV-30">
          <mxGeometry relative="1" as="geometry" />
        </mxCell>
        <mxCell id="_fjjPmCoHC-vN5WkDDjV-43" value="&lt;b&gt;F&lt;/b&gt;" style="edgeLabel;html=1;align=center;verticalAlign=middle;resizable=0;points=[];" vertex="1" connectable="0" parent="_fjjPmCoHC-vN5WkDDjV-31">
          <mxGeometry x="-0.1778" y="-4" relative="1" as="geometry">
            <mxPoint x="4" y="5" as="offset" />
          </mxGeometry>
        </mxCell>
        <mxCell id="_fjjPmCoHC-vN5WkDDjV-24" value="amountIn &amp;gt; 3000" style="rhombus;whiteSpace=wrap;html=1;" vertex="1" parent="1">
          <mxGeometry x="280" y="690" width="200" height="80" as="geometry" />
        </mxCell>
        <mxCell id="_fjjPmCoHC-vN5WkDDjV-26" value="return &quot;Limit exceed&quot;" style="rounded=1;whiteSpace=wrap;html=1;" vertex="1" parent="1">
          <mxGeometry x="600" y="700" width="120" height="60" as="geometry" />
        </mxCell>
        <mxCell id="_fjjPmCoHC-vN5WkDDjV-33" value="" style="edgeStyle=orthogonalEdgeStyle;rounded=0;orthogonalLoop=1;jettySize=auto;html=1;" edge="1" parent="1" source="_fjjPmCoHC-vN5WkDDjV-30" target="_fjjPmCoHC-vN5WkDDjV-32">
          <mxGeometry relative="1" as="geometry" />
        </mxCell>
        <mxCell id="_fjjPmCoHC-vN5WkDDjV-30" value="balance -= amountIN" style="rounded=1;whiteSpace=wrap;html=1;" vertex="1" parent="1">
          <mxGeometry x="320" y="830" width="120" height="60" as="geometry" />
        </mxCell>
        <mxCell id="_fjjPmCoHC-vN5WkDDjV-32" value="return &quot;Withdraw sucessful&quot;" style="rounded=1;whiteSpace=wrap;html=1;" vertex="1" parent="1">
          <mxGeometry x="320" y="940" width="120" height="60" as="geometry" />
        </mxCell>
        <mxCell id="_fjjPmCoHC-vN5WkDDjV-45" value="" style="endArrow=none;html=1;rounded=0;exitX=1;exitY=0.5;exitDx=0;exitDy=0;" edge="1" parent="1" source="_fjjPmCoHC-vN5WkDDjV-4">
          <mxGeometry width="50" height="50" relative="1" as="geometry">
            <mxPoint x="710" y="350" as="sourcePoint" />
            <mxPoint x="780" y="340" as="targetPoint" />
          </mxGeometry>
        </mxCell>
        <mxCell id="_fjjPmCoHC-vN5WkDDjV-46" value="" style="endArrow=none;html=1;rounded=0;" edge="1" parent="1">
          <mxGeometry width="50" height="50" relative="1" as="geometry">
            <mxPoint x="780" y="970" as="sourcePoint" />
            <mxPoint x="780" y="340" as="targetPoint" />
          </mxGeometry>
        </mxCell>
        <mxCell id="_fjjPmCoHC-vN5WkDDjV-47" value="" style="endArrow=none;html=1;rounded=0;exitX=1;exitY=0.5;exitDx=0;exitDy=0;" edge="1" parent="1" source="_fjjPmCoHC-vN5WkDDjV-9">
          <mxGeometry width="50" height="50" relative="1" as="geometry">
            <mxPoint x="370" y="500" as="sourcePoint" />
            <mxPoint x="780" y="470" as="targetPoint" />
          </mxGeometry>
        </mxCell>
        <mxCell id="_fjjPmCoHC-vN5WkDDjV-48" value="" style="endArrow=none;html=1;rounded=0;entryX=1;entryY=0.5;entryDx=0;entryDy=0;" edge="1" parent="1" target="_fjjPmCoHC-vN5WkDDjV-18">
          <mxGeometry width="50" height="50" relative="1" as="geometry">
            <mxPoint x="780" y="600" as="sourcePoint" />
            <mxPoint x="420" y="660" as="targetPoint" />
          </mxGeometry>
        </mxCell>
        <mxCell id="_fjjPmCoHC-vN5WkDDjV-49" value="" style="endArrow=none;html=1;rounded=0;exitX=1;exitY=0.5;exitDx=0;exitDy=0;" edge="1" parent="1" source="_fjjPmCoHC-vN5WkDDjV-26">
          <mxGeometry width="50" height="50" relative="1" as="geometry">
            <mxPoint x="370" y="710" as="sourcePoint" />
            <mxPoint x="780" y="730" as="targetPoint" />
          </mxGeometry>
        </mxCell>
        <mxCell id="_fjjPmCoHC-vN5WkDDjV-50" value="" style="endArrow=none;html=1;rounded=0;exitX=1;exitY=0.5;exitDx=0;exitDy=0;" edge="1" parent="1" source="_fjjPmCoHC-vN5WkDDjV-32">
          <mxGeometry width="50" height="50" relative="1" as="geometry">
            <mxPoint x="370" y="880" as="sourcePoint" />
            <mxPoint x="780" y="970" as="targetPoint" />
          </mxGeometry>
        </mxCell>
      </root>
    </mxGraphModel>
  </diagram>
</mxfile>
